<svg width="512" height="512" viewBox="0 0 512 512" fill="none" xmlns="http://www.w3.org/2000/svg">
  <defs>
    <radialGradient id="deepVoid" cx="0" cy="0" r="1" gradientUnits="userSpaceOnUse" gradientTransform="translate(256 256) rotate(90) scale(350)">
      <stop offset="0" stop-color="#141414"/>
      <stop offset="0.6" stop-color="#050505"/>
      <stop offset="1" stop-color="#000000"/>
    </radialGradient>
    <radialGradient id="livingCore" cx="0" cy="0" r="1" gradientUnits="userSpaceOnUse" gradientTransform="translate(256 256) rotate(90) scale(120)">
      <stop offset="0" stop-color="#FFF9C4"/>
      <stop offset="0.3" stop-color="#FFD740"/>
      <stop offset="0.7" stop-color="#FF6D00"/>
      <stop offset="1" stop-color="#BF360C"/>
    </radialGradient>
    <linearGradient id="metalTrack" x1="0" y1="0" x2="512" y2="512" gradientUnits="userSpaceOnUse">
      <stop offset="0" stop-color="#555"/>
      <stop offset="0.5" stop-color="#222"/>
      <stop offset="1" stop-color="#444"/>
    </linearGradient>
    <filter id="coreBloom" x="-100%" y="-100%" width="300%" height="300%">
      <feGaussianBlur in="SourceGraphic" stdDeviation="10" result="blur"/>
      <feColorMatrix in="blur" type="matrix" values="0 0 0 0 1   0 0 0 0 0.5   0 0 0 0 0  0 0 0 0.6 0"/>
      <feMerge>
        <feMergeNode in="blur"/>
        <feMergeNode in="SourceGraphic"/>
      </feMerge>
    </filter>
    <filter id="etching">
      <feDropShadow dx="0" dy="1" stdDeviation="0.5" flood-color="white" flood-opacity="0.1"/>
      <feDropShadow dx="0" dy="-1" stdDeviation="0.5" flood-color="black" flood-opacity="0.8"/>
    </filter>
    <filter id="glassDistortion">
      <feTurbulence type="fractalNoise" baseFrequency="0.01" numOctaves="2" result="noise"/>
      <feDisplacementMap in="SourceGraphic" in2="noise" scale="5"/>
    </filter>
    <clipPath id="iconShape">
      <rect x="32" y="32" width="448" height="448" rx="96"/>
    </clipPath>
    <pattern id="hexPattern" x="0" y="0" width="20" height="20" patternUnits="userSpaceOnUse">
      <path d="M10 0 L 20 5 L 20 15 L 10 20 L 0 15 L 0 5 Z" fill="none" stroke="white" stroke-width="0.5" opacity="0.1"/>
    </pattern>
  </defs>

  <rect x="32" y="32" width="448" height="448" rx="96" fill="url(#deepVoid)"/>

  <g transform="translate(256, 256)">
    <circle cx="0" cy="0" r="160" fill="none" stroke="#222" stroke-width="24" opacity="0.5"/>
    <circle cx="0" cy="0" r="160" fill="none" stroke="#444" stroke-width="20" stroke-dasharray="2 31.5" stroke-dashoffset="0" opacity="0.8"/>
    <path d="M -113 113 A 160 160 0 1 1 113 -113" fill="none" stroke="#3E2723" stroke-width="4" stroke-linecap="round" opacity="0.8"/>
    <circle cx="0" cy="0" r="120" fill="none" stroke="white" stroke-width="1" opacity="0.1"/>
    <circle cx="0" cy="0" r="115" fill="none" stroke="white" stroke-width="0.5" stroke-dasharray="1 4" opacity="0.3"/>
    <path d="M 0 -130 L 0 -110 M 0 110 L 0 130 M -130 0 L -110 0 M 110 0 L 130 0" stroke="white" stroke-width="2" opacity="0.4"/>
  </g>

  <g filter="url(#coreBloom)">
    <circle cx="256" cy="256" r="85" fill="url(#livingCore)"/>
    <circle cx="256" cy="256" r="40" fill="#BF360C" opacity="0.6"/>
    <circle cx="369" cy="143" r="12" fill="white"/>
    <line x1="290" y1="222" x2="360" y2="152" stroke="url(#livingCore)" stroke-width="2" opacity="0.8"/>
  </g>

  <rect x="32" y="32" width="448" height="448" rx="96" fill="none" stroke="white" stroke-width="4" stroke-opacity="0.1" filter="url(#glassDistortion)"/>
  <path d="M 128 32 L 32 128" stroke="white" stroke-width="3" stroke-opacity="0.3"/>
  <path d="M 32 200 Q 150 150 256 32 L 400 32 Q 200 200 32 350 Z" fill="white" fill-opacity="0.05" style="mix-blend-mode: overlay;"/>
  <path d="M 156 450 Q 256 480 356 450" fill="none" stroke="#FF6D00" stroke-width="4" stroke-opacity="0.2" stroke-linecap="round" filter="url(#coreBloom)"/>

  <rect x="32" y="32" width="448" height="448" rx="96" fill="url(#hexPattern)" opacity="0.1" style="mix-blend-mode: overlay;"/>
</svg>
